<svg xmlns="http://www.w3.org/2000/svg" width="158.356" height="71" viewBox="0 0 158.356 71"><defs><style>.a{fill:#df661c;}.b{fill:#fff;}</style></defs><path class="a" d="M313.017,657.251c8.813-7.063,27.324-20.292,52.571-23.289s41.455,8.535,45.4,12.691c0,0-15.377-9.039-32.312-8.207s-22.234,8.831-25.039,14.441-15.792,33.766-28.468,41.454-35.206,7.481-40.3-8,11.526-25.247,23.266-20.675c5.818,2.8,4.78,6.649-2.389,6.129s-14.338,8.1-10.6,15.688,10.286,11.013,20.779,5.61,20.468-24.311,23.9-33.662-9.455-11.013-24.312-1.87C312.705,659.64,310.927,658.926,313.017,657.251Z" transform="translate(-283.922 -633.471)"/><path class="a" d="M380.483,673.066c-2.454,2.855-8.935,13.611-8.623,20.779s8.727,10.494,16.831-2.182c-.52,3.844,2.286,6.442,6.234,6.442,1.87-.1-.208-2.078-.312-4.675s3.429-10.4,6.545-15.693-.415-11.321-4.259-5.814-12.26,24-16.832,23.48,5.652-16.727,7.034-19.844S385.573,667.144,380.483,673.066Z" transform="translate(-311.18 -644.715)"/><path class="a" d="M425.35,686.557c-.1-3.637-.415-10.6-.312-15.377s-3.844-4.571-5.091-3.636-1.247.935-1.662,5.3-4.468,7.688-6.234,9.142c0,0,2.308,4.635,6.857-3.532l-.2,5.672c-5.919,1.516-12.911,12.1-4.418,14.173C422.915,700.3,425.788,691.291,425.35,686.557Zm-12.608,7.063c-.311-3.883,6.174-7.532,6.174-7.532C418.722,694.824,413.053,697.5,412.742,693.62Z" transform="translate(-323.113 -643.868)"/><path class="b" d="M434.76,670.244s9.007-18.583,26.616-14.2c2.921,1.136.324,2.434-3.165,3.49s-8.034,5.031-12.577,12.74c0,0,6.654-1.7,7.465,0s-.487,4.544-3.976,2.272-14.606,11.522-5.193,18.258c0,0-5.843,3.732-7.871-4.464s6.979-21.747,9.656-24.425C445.714,663.914,438.086,667.485,434.76,670.244Z" transform="translate(-330.683 -640.261)"/><path class="b" d="M463.557,671.659c2.916-5.934,5.853-10.9,8.579-8.659s-4.49,8.659-7.617,16.757-1.363,15.074-3.929,12.829S456.742,685.53,463.557,671.659Z" transform="translate(-338.051 -642.455)"/><path class="b" d="M439.36,677.939c2.405-4.17,3.929-5.933,5.532-5.132s-1.844,8.018-2.766,9.942-4.056,7.617-1.848,8.419,5.817-8.579,6.218-10.9,4.25-3.508,4.651,1.653-2,17.108-13.47,25.447c0,0,14.111-5.372,20.846-13.871,2.406-3.127.321-9.782,4.25-10.584s6.735,6.575-.962,13.631-31.029,18.631-48.909,19.819-46.663-1.939-50.271-8.273c2.165.16,9.792,3.608,25.381,4.971s28.5-1.283,36.676-5.212,15.394-10.744,17.158-14.913c-4.971,2.565-7.072-3.794-6.022-7.229A46.95,46.95,0,0,1,439.36,677.939Z" transform="translate(-308.322 -645.607)"/></svg>