<svg xmlns="http://www.w3.org/2000/svg" width="65.735" height="65.759" viewBox="0 0 65.735 65.759"><defs><style>.a{fill:#df661c;}</style></defs><g transform="translate(1493.568 -783.144)"><path class="a" d="M-1464.819,783.144h8.214a.23.23,0,0,0,.216.107,15.679,15.679,0,0,1,2.641.4,23.269,23.269,0,0,1,5.349,1.87,23.939,23.939,0,0,1,4.806,3.14,11.241,11.241,0,0,1,1.454,1.345c.509.6,1.077,1.15,1.577,1.763a25.58,25.58,0,0,1,1.679,2.331,20.754,20.754,0,0,1,1.542,2.87,24.314,24.314,0,0,1,1.42,4.1.721.721,0,0,0,.22.4,5.039,5.039,0,0,1,1.05.159,9.48,9.48,0,0,1,2.67,1.2,8.428,8.428,0,0,1,2.368,2.216,8.7,8.7,0,0,1,1.672,4.027,9.662,9.662,0,0,1-.107,3.484,8.657,8.657,0,0,1-2.091,4.035,5.654,5.654,0,0,1-.717.716,1.861,1.861,0,0,0-.58.621v.686q0,7.7,0,15.4a7.51,7.51,0,0,1-.1,1.4,7.2,7.2,0,0,1-3.174,4.9.813.813,0,0,0-.329.365c0,.124,0,.294,0,.465a22.69,22.69,0,0,1-.12,3.128,2.141,2.141,0,0,1-.053.313,5.892,5.892,0,0,1-2.19,3.285,5.445,5.445,0,0,1-4.186.968,5.263,5.263,0,0,1-3.3-1.927,5.331,5.331,0,0,1-1.164-2.463,8.137,8.137,0,0,1-.16-2.033,1.407,1.407,0,0,0-.058-.7c-.12-.011-.224-.029-.327-.029q-14.24.01-28.48.025c-.017,0-.036.019-.052.031s-.032.028-.057.05c-.059.715-.018,1.437-.113,2.16a6.043,6.043,0,0,1-.666,2.107,5.454,5.454,0,0,1-6.21,2.68,5.394,5.394,0,0,1-3.468-2.726,6.843,6.843,0,0,1-.724-3.137c-.037-.765-.007-1.533-.007-2.214a1.726,1.726,0,0,0-.653-.555,5.621,5.621,0,0,1-1.338-1.28,7.724,7.724,0,0,1-1.624-4.808c.019-5.153.007-10.307.007-15.46v-.713c-.186-.173-.354-.336-.53-.491a9.108,9.108,0,0,1-2.693-4.115,12.212,12.212,0,0,0-.357-1.332v-2.7c.034-.051.091-.1.1-.153a8.476,8.476,0,0,1,2.336-4.8,8.906,8.906,0,0,1,3.857-2.4c.527-.171,1.078-.228,1.619-.421a4.655,4.655,0,0,0,.387-1.19,23.243,23.243,0,0,1,3.1-6.683,24.968,24.968,0,0,1,3.791-4.378,22.748,22.748,0,0,1,5.25-3.6,22.343,22.343,0,0,1,5.458-1.927,15.616,15.616,0,0,1,2.638-.4A.229.229,0,0,0-1464.819,783.144Zm-16.949,18.549a1.214,1.214,0,0,0,.179.135c.135.063.274.117.412.173a9.32,9.32,0,0,1,4.957,4.677,10.491,10.491,0,0,1,1,4.638c.027,2.523,0,5.047.011,7.571,0,.223-.078.469.087.667,1.656.106,28.355.056,28.867-.054a2.223,2.223,0,0,0,.04-.695c.065-3.01-.11-6.022.1-9.032a9,9,0,0,1,.883-3.3,8.987,8.987,0,0,1,1.989-2.645,7.991,7.991,0,0,1,2.674-1.714c.294-.11.579-.244.918-.388-.162-.558-.28-1.1-.474-1.606a22.463,22.463,0,0,0-1.672-3.52,19.632,19.632,0,0,0-2.827-3.7c-.463-.472-.954-.914-1.449-1.354a17.409,17.409,0,0,0-3.09-2.149,18.807,18.807,0,0,0-5.419-2.045,19.416,19.416,0,0,0-3.977-.472c-1.518,0-3.037.023-4.555,0a17.314,17.314,0,0,0-2.978.3,17.216,17.216,0,0,0-2.773.718,19.833,19.833,0,0,0-7.019,4.093,20.01,20.01,0,0,0-3.064,3.513,21.329,21.329,0,0,0-2.4,4.722C-1481.521,800.694-1481.626,801.193-1481.768,801.693Zm39.488,18.278a.791.791,0,0,0,.147.1,5.37,5.37,0,0,1,3.016,3.129,5.12,5.12,0,0,1,.236,3.07,5.448,5.448,0,0,1-2.286,3.428,5.543,5.543,0,0,1-3.2.957q-16.361-.015-32.722-.008a5.426,5.426,0,0,1-3.732-1.414,5.327,5.327,0,0,1-1.834-3.743,5.346,5.346,0,0,1,2.425-4.926,5.53,5.53,0,0,1,1.085-.588,1.2,1.2,0,0,0,.071-.605c0-2.759-.008-5.518.007-8.277a6.5,6.5,0,0,0-.594-2.846,5.229,5.229,0,0,0-1.714-2.107,5.06,5.06,0,0,0-4.108-.922,5.236,5.236,0,0,0-2.911,1.609,5.3,5.3,0,0,0-1.449,3.845,5.275,5.275,0,0,0,1.462,3.515,6.236,6.236,0,0,0,1.135.93,1.951,1.951,0,0,1,1.01,1.927,4.136,4.136,0,0,0,0,.449q0,8.148-.005,16.3a5.317,5.317,0,0,0,.176,1.388,3.53,3.53,0,0,0,2.793,2.6,4.72,4.72,0,0,0,1.088.031h42.923c.214,0,.428,0,.642,0a3.459,3.459,0,0,0,2.672-1.41,4.044,4.044,0,0,0,.751-2.4c.032-.511.006-1.026.006-1.539q0-7.7,0-15.4a2.827,2.827,0,0,1,.048-.764,2.188,2.188,0,0,1,1-1.2,6.2,6.2,0,0,0,1.037-.849,5.215,5.215,0,0,0,1.3-5.254,5.139,5.139,0,0,0-2.23-3.013,5.259,5.259,0,0,0-2.827-.868,5.129,5.129,0,0,0-3.233,1.006,5.02,5.02,0,0,0-2.245,4.167c-.025,3.058-.01,6.117-.009,9.175A.852.852,0,0,0-1442.28,819.971Zm-18.431,6.924h15.971a3.829,3.829,0,0,0,.577-.007,1.785,1.785,0,0,0,1.633-1.48,1.763,1.763,0,0,0-.864-1.782,2.334,2.334,0,0,0-1.284-.292q-16.035,0-32.07,0a3.691,3.691,0,0,0-.882.117,1.732,1.732,0,0,0-.848,2.813,1.939,1.939,0,0,0,1.6.636Q-1468.792,826.888-1460.71,826.894Zm-21.812,14.792c0,.487,0,.909,0,1.332,0,.234,0,.469.01.7a.557.557,0,0,0,.033.187,1.777,1.777,0,0,0,1.951,1.2,1.625,1.625,0,0,0,1.456-1.659c.009-.447.006-.895,0-1.342,0-.143.041-.3-.122-.421Zm40.169.011c0,.619-.007,1.171,0,1.723a1.613,1.613,0,0,0,1.366,1.673,1.688,1.688,0,0,0,2.044-1.283,7.261,7.261,0,0,0,.006-2.112Z" transform="translate(0)"/></g></svg>