<svg xmlns="http://www.w3.org/2000/svg" width="72.851" height="72.859" viewBox="0 0 72.851 72.859"><defs><style>.a{fill:#df661c;}</style></defs><g transform="translate(711.295 -785.875)"><path class="a" d="M-647.078,887.7c-.106-.24-.369-.177-.549-.259a3.863,3.863,0,0,1-2.151-2.639,4.686,4.686,0,0,1-.153-1.323c.011-1.849.007-3.7,0-5.547a1.806,1.806,0,0,0-.075-.771,29.706,29.706,0,0,1-8,1.454,28.783,28.783,0,0,1-8.078-.9,30.389,30.389,0,0,1-7.529-3.325c-.183.06-.3.246-.442.39-1.964,1.958-3.931,3.914-5.881,5.887a2.956,2.956,0,0,1-1.918,1.06l-.594-.183-.113-.087a1.775,1.775,0,0,1-.526-2.158c.9-2.876,1.846-5.737,2.817-8.589.173-.507.3-1.03.464-1.6-.085-.519-.571-.847-.893-1.261a24.215,24.215,0,0,1-1.812-2.677,26.219,26.219,0,0,1-2.709-6.239,25.343,25.343,0,0,1-.719-3.271c-.136-1-.22-2-.3-3a13.6,13.6,0,0,1-.1-2.179c.094-1.091.187-2.182.356-3.27.187-1.2.478-2.373.762-3.551a25.26,25.26,0,0,1,1.038-2.976c.174-.46.39-.905.608-1.347a27.391,27.391,0,0,1,3.19-5.047,23.514,23.514,0,0,1,2.51-2.777,30.805,30.805,0,0,1,4.931-3.729,27.179,27.179,0,0,1,6.286-2.758,16.287,16.287,0,0,1,3.829-.789,3.9,3.9,0,0,0,.822-.148,7.846,7.846,0,0,1,1.969-.121c.9-.014,1.8,0,2.7,0a26.04,26.04,0,0,1,3.056.371,30.637,30.637,0,0,1,3.267.752,14.34,14.34,0,0,1,1.917.667,21.913,21.913,0,0,1,2.955,1.323,31.033,31.033,0,0,1,3.44,2.186,31.083,31.083,0,0,1,3.8,3.377,34.366,34.366,0,0,1,2.221,2.729,17.294,17.294,0,0,1,1.861,2.978,26.92,26.92,0,0,1,1.461,3.2c.432,1.236.81,2.483,1.128,3.749.181.722.246,1.474.4,2.2a9.773,9.773,0,0,0,.232,1.805,1.361,1.361,0,0,1,.021.494c0,.759,0,1.517,0,2.276,0,.893-.185,1.768-.253,2.65a24.307,24.307,0,0,1-.751,3.84c-.141.587-.357,1.156-.54,1.733a27.706,27.706,0,0,0,4.519.048c0-.432,0-.875,0-1.318,0-.989.245-1.32,1.2-1.641a2.339,2.339,0,0,0,.266-.129,1.868,1.868,0,0,0,.262.09c1.155.215,1.338.939,1.407,1.859.028.372,0,.749,0,1.191.76,0,1.466.027,2.169-.006A3.61,3.61,0,0,1-620,862.158a2.8,2.8,0,0,1,.523,1.641q.012,7.575,0,15.149c0,.071-.006.142-.009.209a4.928,4.928,0,0,1-.926,1.155q-3.275,3.262-6.542,6.534c-.3.3-.614.569-.921.852Zm-30.873-13.657a16.535,16.535,0,0,0,1.574-1.53l-.862-.865a12.928,12.928,0,0,0-.715,2.392c-.034.025-.142.008-.059.1Zm41.37-13.7a23.959,23.959,0,0,0-8.5-28.872,23.323,23.323,0,0,0-16.65-4.225,23.558,23.558,0,0,0-13.351,6.035,24.069,24.069,0,0,0-4.234,31.006,23.985,23.985,0,0,0,29.392,9.36v-.686c0-2.774.011-5.548-.006-8.322a4.955,4.955,0,0,1,.853-2.854,1.893,1.893,0,0,1-2.255-.609c-.086-.082-.168-.167-.252-.251q-3.068-3.068-6.137-6.134a2.329,2.329,0,0,0-.574-.515,3.016,3.016,0,0,1-3.4-1.6,3.231,3.231,0,0,1-.305-1.92,3.314,3.314,0,0,1,1.543-2.161V834.075a2.293,2.293,0,0,1,1.01-1.016c.185,0,.4.008.612,0a1.307,1.307,0,0,1,1.312.89,2.629,2.629,0,0,1,.209,1.1q-.015,6.4-.006,12.8v.794a4.149,4.149,0,0,1,1.265,1.478,7.053,7.053,0,0,1,.188,2.045c.137.116.329.259.5.426,2.1,2.093,4.185,4.2,6.295,6.279a2.676,2.676,0,0,1,.869,1.559c.074.174-.276.355-.083.622a3.369,3.369,0,0,1,2.3-.678c.7.036,1.411.007,2.151.007v-1.587a1.779,1.779,0,0,1,1.721-1.554,1.752,1.752,0,0,0,.219.115,1.514,1.514,0,0,1,1.225,1.721c0,.42,0,.839,0,1.274Zm-10.187,9.181c-.008.182-.02.321-.02.46q0,6.651,0,13.3a1.323,1.323,0,0,0,0,.284c.087.384.125.8.545.984,4.915.11,13.921.056,14.526-.1v-.7c0-1.517-.013-3.035.006-4.552a3.724,3.724,0,0,1,.712-2.242,3.794,3.794,0,0,1,3.193-1.506c1.541,0,3.083,0,4.624,0,.181,0,.38.065.54-.09v-5.806C-623.249,869.475-645.424,869.441-646.768,869.525Zm-.02-3.217c1.43.121,23.624.072,24.158-.049v-2.37a1.012,1.012,0,0,0-.406-.375c-.377,0-.781-.013-1.182,0a3.934,3.934,0,0,0-1.24.065c-.508,1.244-.745,1.389-2.154,1.341a1.725,1.725,0,0,1-1.024-1.382h-11.977a2.043,2.043,0,0,1-1.058,1.388h-1.14a2.219,2.219,0,0,1-1.082-1.4h-2.369a1.411,1.411,0,0,0-.522,1.039C-646.8,865.132-646.788,865.7-646.788,866.307Zm23.406,12.29c-1.269,0-2.523,0-3.776,0a2.344,2.344,0,0,0-1.23.217c-.032.231-.192.421-.191.669.007,1.439,0,2.878,0,4.31Z" transform="translate(-18.972 -28.964)"/><path class="a" d="M-711.295,797.7c.036-.028.1-.054.1-.084a11.036,11.036,0,0,1,.444-2.044,10.874,10.874,0,0,1,1.042-2.6,13.585,13.585,0,0,1,2.518-3.289,13.747,13.747,0,0,1,4.591-2.939,22.182,22.182,0,0,1,3.309-.847,2.124,2.124,0,0,1,.426-.011c.734,0,1.47-.023,2.2,0a12,12,0,0,1,3.688.743,13.351,13.351,0,0,1,3,1.526,16.88,16.88,0,0,1,1.407,1.049,3.53,3.53,0,0,1,1.022,1.255c-.006-.032,0,.014.011.06a2.1,2.1,0,0,1-.773,1.929q-8.221,8.165-16.388,16.382a1.982,1.982,0,0,1-2.23.71,5.213,5.213,0,0,1-1.538-1.549,13.706,13.706,0,0,1-1.659-2.69,17.381,17.381,0,0,1-1.027-3.12c-.061-.261.119-.566-.145-.789Zm5.136,8.018,14.685-14.685a10.455,10.455,0,0,0-13.111.6A10.48,10.48,0,0,0-706.159,805.714Z" transform="translate(0 0)"/><path class="a" d="M-531.759,791.3a1.922,1.922,0,0,1,.836-1.8,18.814,18.814,0,0,1,1.82-1.447,14.473,14.473,0,0,1,4.432-1.876,14.158,14.158,0,0,1,3.5-.279,12.871,12.871,0,0,1,6.66,1.93,13.706,13.706,0,0,1,3.327,2.821,13.828,13.828,0,0,1,2.468,4.235,10.842,10.842,0,0,1,.674,2.7,11.169,11.169,0,0,1,.174,2.6,16.246,16.246,0,0,1-1.286,5.135,13.854,13.854,0,0,1-2.578,3.748,1.7,1.7,0,0,1-1.505.6,2.065,2.065,0,0,0-.268,0,4.155,4.155,0,0,1-1.178-.91q-8.118-8.125-16.246-16.24A3.367,3.367,0,0,1-531.759,791.3Zm18.641,14.375a10.442,10.442,0,0,0-1.724-14.17,10.35,10.35,0,0,0-12.873-.427Z" transform="translate(-136.561 -0.02)"/></g></svg>