<svg xmlns="http://www.w3.org/2000/svg" width="49.377" height="65.759" viewBox="0 0 49.377 65.759"><defs><style>.a{fill:#df661c;}</style></defs><g transform="translate(1816.681 -783.144)"><path class="a" d="M-1791.347,783.144c.677.255,1.352.516,2.032.764q6.288,2.3,12.578,4.586c2.508.912,5.021,1.811,7.529,2.726a2.658,2.658,0,0,1,1.577,1.021,1.948,1.948,0,0,1,.321,1.023c0,.128,0,.257,0,.385q0,11.745.005,23.49a32.2,32.2,0,0,1-.162,3.389,33.071,33.071,0,0,1-2.082,9.006,26.876,26.876,0,0,1-4.871,7.934,34.634,34.634,0,0,1-6.012,5.263,58.5,58.5,0,0,1-6.532,3.927c-1.231.645-2.476,1.262-3.709,1.9a2.7,2.7,0,0,1-2.63,0c-2.616-1.317-5.231-2.634-7.723-4.179a44.268,44.268,0,0,1-5.994-4.38,28.684,28.684,0,0,1-4.705-5.31,26.72,26.72,0,0,1-2.79-5.4,29.505,29.505,0,0,1-1.432-4.976c-.206-1.022-.331-2.059-.474-3.092a47.76,47.76,0,0,1-.246-6.589c0-7,.011-13.992-.015-20.987a2.2,2.2,0,0,1,1.549-2.3c1.591-.562,3.173-1.147,4.758-1.725q4.785-1.743,9.57-3.488,3.793-1.38,7.588-2.753a1.812,1.812,0,0,0,.585-.243Zm-21.139,11.772c-.009.156-.019.241-.018.326.061,7.315-.131,14.631.1,21.945.028.9.035,1.789.116,2.686a35.083,35.083,0,0,0,.679,4.418,22.665,22.665,0,0,0,3.205,7.637,24,24,0,0,0,3.694,4.323,35.636,35.636,0,0,0,4.316,3.417,66.224,66.224,0,0,0,8.01,4.579.859.859,0,0,0,.478.127c.089-.037.229-.088.362-.153a70.424,70.424,0,0,0,6.565-3.626,38.661,38.661,0,0,0,6.1-4.669,23.3,23.3,0,0,0,2.487-2.844,21.994,21.994,0,0,0,3.685-7.485,32.1,32.1,0,0,0,1.024-5.781c.119-1.321.176-2.647.187-3.962.058-6.761.027-13.523.025-20.285a1.592,1.592,0,0,0-.056-.66c-.06-.026-.134-.064-.212-.092q-4.364-1.589-8.729-3.177c-1.706-.621-3.409-1.249-5.115-1.869-1.967-.715-3.937-1.423-5.9-2.141a1.27,1.27,0,0,0-.932-.018q-2.28.853-4.57,1.682-6.264,2.269-12.531,4.531C-1810.5,794.181-1811.481,794.546-1812.486,794.916Z" transform="translate(0 0)"/><path class="a" d="M-1750.175,893.516l6.648,6.643,12.829-12.829a23.243,23.243,0,0,1,3,2.913c-.256.425-15.271,15.464-15.791,15.816-.423-.286-9.343-9.191-9.639-9.6Z" transform="translate(-49.927 -81.848)"/></g></svg>