<svg xmlns="http://www.w3.org/2000/svg" width="69.105" height="60.419" viewBox="0 0 69.105 60.419"><defs><style>.a{fill:#df661c;}</style></defs><g transform="translate(1110.774 -802.285)"><path class="a" d="M-1041.669,807.821a.153.153,0,0,0-.123.137,10.242,10.242,0,0,1-1.391,3.486,18.259,18.259,0,0,1-1.432,2.158,5.851,5.851,0,0,1-.435.5c-1.157,1.163-2.279,2.367-3.5,3.461a25,25,0,0,1-2.039,1.833c-.414.3-.759.686-1.155,1.016q-1.842,1.54-3.716,3.04c-1.612,1.288-3.273,2.508-4.935,3.73-2.215,1.628-4.479,3.181-6.77,4.7-.978.647-2,1.229-3.023,1.806-1.158.654-2.349,1.25-3.506,1.906-1.006.57-2.034,1.1-3.084,1.575-1.573.711-3.1,1.516-4.7,2.175-1.288.53-2.543,1.137-3.825,1.68q-2.466,1.046-4.956,2.037c-1.659.66-3.335,1.272-4.992,1.937a7.632,7.632,0,0,0-1.177.464h-1.18a3.888,3.888,0,0,1-1.658-1.126,19.9,19.9,0,0,0-1.484-1.472c-1.187-1.03-2.229-2.213-3.4-3.251-.926-.819-1.746-1.742-2.671-2.554-1.062-.933-2.044-1.947-3.058-2.929a3.043,3.043,0,0,1-.864-1.25.289.289,0,0,0-.006-.066,2.644,2.644,0,0,1,.967-2.43c.615-.558,1.187-1.165,1.764-1.764a2.864,2.864,0,0,1,1.215-.824,5.789,5.789,0,0,1,2.023.2c.6.142,1.211.219,1.818.328.865.155,1.727.336,2.6.461a10.33,10.33,0,0,0,2.419.343,89.517,89.517,0,0,0,8.494-3.958,15.391,15.391,0,0,0-1.864-.864c-.759-.355-1.548-.645-2.321-.97-1.18-.5-2.372-.968-3.531-1.51-.823-.384-1.657-.737-2.49-1.1-1.135-.489-2.287-.941-3.41-1.455a8.568,8.568,0,0,1-1.308-.637,2.066,2.066,0,0,1-.964-2.051,1.7,1.7,0,0,1,.511-1.127c.083-.075.156-.161.238-.238,1.583-1.495,2.994-3.158,4.55-4.68a2.649,2.649,0,0,1,2.025-.846c.847.026,1.687.141,2.532.186a9.641,9.641,0,0,1,1.722.12c.834.2,1.7-.04,2.511.241a.172.172,0,0,0,.067,0c.964-.085,1.91.194,2.871.137.472-.028.912.174,1.389.146a2.654,2.654,0,0,1,1.32.119.136.136,0,0,0,.067,0c.9-.086,1.777.181,2.668.131.477-.027.913.172,1.389.152a2.914,2.914,0,0,1,1.388.118.135.135,0,0,0,.067,0c.829-.083,1.643.142,2.467.134.894-.008,1.775.143,2.668.175.57.02,1.149.1,1.726.1.213,0,.374.146.633.141l2.255-1.684c1.438-1.074,2.911-2.1,4.44-3.038a31.932,31.932,0,0,1,2.92-1.592c1.015-.486,2.057-.908,3.117-1.3a28.861,28.861,0,0,1,3.786-1.12c.964-.21,1.947-.361,2.936-.476,1.322-.153,2.636-.071,3.953-.1a13.685,13.685,0,0,1,2.953.365,11.594,11.594,0,0,1,2.334.7,3.751,3.751,0,0,1,1.777,1.435c.179.279.136.642.388.88Zm-54.963,32.892c.363.111.609-.142.893-.249,1.545-.585,3.09-1.174,4.626-1.782,1.087-.431,2.16-.9,3.241-1.345,1.389-.574,2.758-1.193,4.135-1.8,1.5-.656,2.985-1.349,4.462-2.056,2.082-1,4.137-2.047,6.151-3.178.966-.543,1.928-1.094,2.865-1.682,1.387-.871,2.743-1.794,4.089-2.727,1.566-1.085,3.113-2.2,4.658-3.311.755-.545,1.517-1.087,2.223-1.693.777-.668,1.593-1.287,2.392-1.923,1.342-1.067,2.634-2.191,3.925-3.314,1.387-1.206,2.7-2.5,3.98-3.819a10.318,10.318,0,0,0,1.208-1.345,10.09,10.09,0,0,0,1.64-3.291c-.062-.057-.1-.13-.161-.142a13.036,13.036,0,0,0-2.939-.442,23.328,23.328,0,0,0-3.146.1c-.517.081-1.073.09-1.58.2-.854.184-1.714.36-2.56.607a26.361,26.361,0,0,0-3.6,1.309,34.516,34.516,0,0,0-3.139,1.616c-1.243.731-2.418,1.564-3.587,2.4s-2.3,1.743-3.452,2.608a1.821,1.821,0,0,1-.946.444,12.514,12.514,0,0,1-2.222-.012c-.925-.12-1.853-.174-2.78-.226a18.029,18.029,0,0,0-2.669-.155.137.137,0,0,1-.067,0,2.647,2.647,0,0,0-1.321-.116c-.455.025-.872-.169-1.321-.146-.939.048-1.863-.225-2.8-.14a.142.142,0,0,1-.067,0,2.484,2.484,0,0,0-1.253-.117c-.457.036-.876-.163-1.322-.141-1.007.05-2-.22-3.007-.145a.375.375,0,0,1-.134-.006,11.935,11.935,0,0,0-2.51-.222,16.189,16.189,0,0,0-2.869-.176.3.3,0,0,1-.134-.006,4.058,4.058,0,0,0-1.463-.116l-2.017,1.956c1.026.452,2.055.911,3.088,1.36,1.276.554,2.553,1.107,3.835,1.647q1.069.45,2.128.924c1.109.494,2.25.915,3.356,1.414.926.418,1.863.807,2.8,1.2a2.4,2.4,0,0,1,1.233,1.182,1.964,1.964,0,0,1,.107,1.54,2.875,2.875,0,0,1-1.133,1.375,26.3,26.3,0,0,1-4.06,2.52c-1.646.825-3.278,1.68-4.969,2.412-1.377.6-2.764,1.171-4.153,1.739a2.461,2.461,0,0,1-.91.162,17.307,17.307,0,0,1-3.01-.451c-1.19-.195-2.375-.441-3.567-.645-.278-.048-.539-.225-.836-.087.163.371.564.483.82.754,1.5,1.583,3.154,3,4.691,4.54,1.012,1.016,2.072,1.983,3.111,2.971A.172.172,0,0,0-1096.632,840.713Z" transform="translate(0 0)"/><path class="a" d="M-1072.265,1055.684v-4.208a.6.6,0,0,1,.051-.05c.017-.013.037-.031.055-.031q25.692-.008,51.385-.013c.085,0,.171.016.284.027v4.274Z" transform="translate(-29.834 -192.98)"/><path class="a" d="M-925.044,947.617a.818.818,0,0,0-.249-.1c-1.169-.04-1.7-.85-2.1-1.778-.1-.241-.2-.492-.311-.73-.617-1.3-1.267-2.591-1.868-3.9-.267-.582-.533-1.165-.812-1.736a24.386,24.386,0,0,1,3.835-2.3l2.04,4.342a5.45,5.45,0,0,0,1.044-.948c.345-.321.676-.658,1.031-1.006-.157-1.586-.313-3.165-.475-4.792a4.572,4.572,0,0,1,1.286-.955c.482-.315.94-.666,1.406-1a7.564,7.564,0,0,0,1.358-1.025,2.83,2.83,0,0,1,.228,1.092,13.011,13.011,0,0,0,.244,2.1.393.393,0,0,1,.011.134,10.234,10.234,0,0,0,.17,2.059,8.343,8.343,0,0,0,.218,1.77,2.547,2.547,0,0,1,.024.738c0,.427,0,.854,0,1.209a2.974,2.974,0,0,1-.856,1.26c-.488.465-.98.93-1.426,1.434-.98,1.111-2.043,2.139-3.074,3.2a2.387,2.387,0,0,1-1.479.823A.906.906,0,0,0-925.044,947.617Z" transform="translate(-139.753 -100.247)"/></g></svg>