<svg xmlns="http://www.w3.org/2000/svg" width="66.957" height="66.926" viewBox="0 0 66.957 66.926"><defs><style>.a{fill:#fff;}</style></defs><path class="a" d="M-768.15,140.793a31.8,31.8,0,0,0-17.952-8.6A33.492,33.492,0,0,0-823.814,159c-.233,1.191-.35,2.4-.521,3.607v5.484a32.939,32.939,0,0,0,1.378,7.02q6.435,19.02,26.087,23.2c1.059.223,2.145.315,3.219.468h5.484a33.074,33.074,0,0,0,6.519-1.228c12.951-4.175,21.116-12.868,23.63-26.245C-755.789,159.434-759.421,149.147-768.15,140.793Zm-7.569,24.949q-11.776,6.8-23.554,13.6c-.65.375-.714.336-.715-.422q0-6.785,0-13.571,0-6.753,0-13.505c0-.845.048-.874.771-.456q11.75,6.783,23.5,13.57C-775.1,165.317-775.1,165.386-775.718,165.742Z" transform="translate(824.335 -131.85)"/></svg>